<svg xmlns="http://www.w3.org/2000/svg" width="120.1" height="122.9">
  <path fill="#0D4308" d="M62.6 6.1c17.6 8.4 35.5 16.8 50.9 24.5.7.3 1 .6 1 1.3l-.1 85.3v.7H8.5c-.6 0-.9-.2-.9-.7-.2-28.4-.1-56.7-.1-85.1 0-1 .2-1.2 1-1.5C26.4 22 42.8 14.1 59.4 6.2c1.7-1 1.7-1 3.2-.1zM9.7 114c0 1 .9 1.7 1.9 1.7 36.3.4 65.9-.3 98.9.5 1.2 0 2.1-.8 2-2V81.8c0-.7-.2-1.4-.5-2-.4-.5-.9-1-1.7-1-.4 0-.9-.1-1.3-.2l-2.4-.9C86.9 69.4 67.8 65.8 47.7 67c-13.6.5-24.7 6.5-34.1 11-.7.2-1.3.6-2 .7-.6.1-1 .4-1.4.9-.4.5-.4 1.2-.4 1.9 0 11.2-.1 21-.1 32.5zm0-78.2c.1 1.2.9 1.7 2 1.4.9-.3 1.8-.5 2.8-.5 11.5-.3 21.2.6 31.9 2.9 8.6 2.8 16.4 5.1 22.9 10.5.9.6 1.2.7 2.2.2 11.1-2.8 19.8-5.1 38.3-3.9l1 .4c.5.2 1 .3 1.2-.2.2-.7.5-1.3.5-2v-9.8c0-1-.3-2-1.3-2.6-14.3-7.3-32.3-15.7-50.3-23.9-8.6 3.7-14 6.4-20.9 9.9-1.7 2-1.6 5.4-1.6 7.8-.3 1-.2 1.6-1.4 1.8-.6-.1-.8-.7-.8-1.1-.1-2.3.6-3.9.7-6 0-.5-.4-.8-.9-.7-.4 0-.7.2-1 .4-8.1 4.1-16.7 8.2-24.1 11.6-1.1 1.2-1.2 2.3-1.2 3.8zm1.8 2.9c-1.3 0-1.7.5-1.7 1.6v36.6c.1.6.7 1 1.2.5.8-.5 1.4-1.2 2.2-1.8 9.9-6.8 18.8-9.3 30.3-11.3l2.6-.6c.1 0 .2 0 .3-.2l1.1-1.4C52.7 57 59.6 53.8 66 52c.4-.1.9-.3.7-.9-14.9-8.4-29.8-11.3-44.3-11.7l-7.7-.1c-1-.1-2.4-.3-3.2-.6zm96.9 37.2l2.4 1.8c.8.6 1.7 0 1.7-1.1V50.5c0-.8-.2-1.5-.4-2.3-.2-.6-.7-.7-1.3-.4-.6.3-1.2.6-1.9.7-21.6-.7-40.4 6.3-59.3 13.9l-.4.5c0 .2.3.4.5.4.7.2 1.5.4 2.3.4 22.8.3 31.7.3 56.4 12.2z"/>
  <path fill="#0D4308" d="M49.9 33.3h-2.8c-.2 0-.4-.1-.6-.2-.1-.1-.3-.2-.3-.4 0-.1.2-.3.4-.3 2-.7 4-1 6-1.2 10.3-1.4 21.1-2.9 30.6-4.1h3l.8.6c-.3.3-.5.7-.8.8l-2.4.6c-10.2 1.2-21.5 2.8-30.7 4.1-1.1.2-2.4.2-3.2.1zM45.5 35.6l1-.2c13.2 2.6 26.7 6.2 38.6 8.4.2 0 .4.3.4.5l-.3.5c-9.4.1-22.9-4.5-36.7-7.2-1.2-.3-2.3-.6-3-2zM71.7 15.9c.3.1.6.2.7.4.2.3 0 .6-.3 1-7.7 4.4-17.1 8-23.6 11.6l-2.8 1c-.2.1-.5 0-.6-.1V29c.8-1.3 2.2-1.9 3.5-2.6 7.6-3.9 13.5-6.4 20.5-9.7.6-.4 2.4-.8 2.6-.8zM43.5 31.9c-.3-.6-.8-.8-1.3-1-1.1-.4-2.1-1.1-3.4-.8l-2.6.7c-.8.4-1.8.7-1.6 2v.1c.3 1.1.6 2.2 1.4 3.1 1 .7 2.3.9 3.5.5.8-.3 1.6-.5 2.3-1 .6-.3 1-.9 1.4-1.4.5-.6.7-1.5.3-2.2zm-2.4 1.5c-.4 1-2.1 1.8-3.1 1.5-.5-.1-1.1-.7-1.1-1.3-.1-.6.3-1.1.7-1.3 1.1-.3 2-.8 3.1-.2.6.3.6.8.4 1.3zM41.4 28c-.6 0-.8-.2-.7-.7 0-.3 0-.6.2-.8l2-2.4c3.1-3.8 4.9-6.2 8.3-9.4.3-.1.7-.2 1-.1.1.1.2.6.1.9-2.7 4-6.4 8-9 11.2-.7.9-1.4 1.1-1.9 1.3zM30.4 32.8c.3.2.6.7.2 1.2-.3.5-.8.5-1.3.3-3.8-1.3-8.2-1.6-11.8-1.6-.7 0-1.2-.2-1.5-1s-.1-1 .7-1c5.1.3 9.8 0 13.7 2.1zM31 25.6l.9.7 1.3 2.4c.5.7.5 1.2 0 1.6-.6.4-1.2.3-1.7-.4-.6-.9-1.1-1.8-1.5-2.8-.3-.6.3-1.3 1-1.5z"/>
  <g fill="#0D4308">
    <path d="M24.3 95.4c-1.4.5-2.1.8-3.5 1.3-1.2-2.9-1.7-4.4-2.9-7.3-.7.3-1.1.4-1.8.7l-1-2.5c.7-.3 1.1-.4 1.8-.7-.2-.5-.3-.7-.5-1.2-.8-2 .2-3.8 2.8-4.7 1.1-.4 2.3-.6 3.6-.6.1 1 .1 1.6.2 2.6-.9 0-1.7.2-2.2.3-.5.2-.7.5-.5 1s.3.7.4 1.2c1-.4 1.5-.5 2.5-.9.3 1 .5 1.6.9 2.6-1 .3-1.5.5-2.4.8 1 3 1.6 4.5 2.6 7.4zM31.4 86.2c.1 0 .2 0 .3-.1-.1-.2-.1-.3-.1-.5-.1-.5-.6-.8-1.2-.6-1.3.3-2.4 1-3.4 2-.6-.9-.9-1.3-1.5-2.2 1.4-1.2 2.9-2 4.4-2.5 2.9-.8 4.9.2 5.3 2.3.4 1.6.6 2.4.9 4 .2 1.1.7 2.1 1.3 2.9-1.3.3-2 .5-3.3.8-.2-.2-.6-.8-.6-.8-.2 0-1.3 1.5-2.3 1.8-2.2.6-4-.1-4.6-2-.8-2 .9-4.1 4.8-5.1zm1.1 3.3c-.1-.5-.2-.7-.3-1.2-.1 0-.1 0-.2.1-1.5.4-2.3 1.3-2 2 .1.4.4.6 1 .4.7-.2 1.2-.7 1.5-1.3zM44.7 82.3c-.4-.1-.8 0-1.4 0-.8.1-1.3.6-1.7 1.3.5 2.8.7 4.2 1.2 7-1.4.2-2.2.4-3.6.7-.9-4.1-1.3-6.2-2.1-10.4 1.6-.3 2.4-.5 3.9-.7.1.3.1.4.1.7.4-.7 1.3-1.2 2.1-1.3.4-.1.9-.1 1.4 0 0 1 0 1.6.1 2.7zM51.2 89.5c-1.4.1-2.2.2-3.6.4-.5-4.2-.8-6.3-1.3-10.5 1.6-.2 2.4-.3 3.9-.4v.5c.6-.6 1.3-.9 2.2-1 1.5-.1 3.2 1.1 3.3 1.1.3 0 1.7-1.4 2.8-1.4 2.5-.1 3.9 1.2 3.8 3.3 0 3 0 4.5-.1 7.5h-3.6c-.1-2.9-.1-4.4-.2-7.3 0-.5-.3-.8-.9-.7-.5 0-.9.3-1.3.9.1 2.9.2 4.3.3 7.2-1.4.1-2.2.1-3.6.2-.2-2.9-.3-4.4-.5-7.3 0-.5-.3-.7-.9-.7-.5 0-.9.4-1.2 1 .5 2.9.6 4.3.9 7.2zM68.5 89.2c-1.5-.1-2.2-.1-3.6-.2l.5-15c1.7.1 2.5.1 4.1.2l-1 15zM77.1 83.3h.3c0-.2 0-.3.1-.5.1-.6-.3-.9-.9-1-1.3-.2-2.6 0-3.9.5-.2-1-.3-1.6-.5-2.6 1.7-.6 3.4-.8 5-.6 2.9.4 4.4 2.1 4 4.2-.3 1.6-.4 2.5-.7 4.1-.2 1.1-.1 2.2.1 3.2-1.3-.2-2-.3-3.4-.5-.1-.2-.2-.9-.2-.9-.1-.1-1.8.9-2.8.8-2.3-.3-3.6-1.6-3.5-3.6.2-2.4 2.5-3.6 6.4-3.1zm-.2 3.5c.1-.5.1-.7.2-1.2h-.2c-1.6-.2-2.5.3-2.6 1.1 0 .4.2.7.7.8.8 0 1.4-.2 1.9-.7zM84.4 80.6c1.6.3 2.4.5 3.9.8-.1.3-.1.4-.2.7.8-.5 1.7-.6 2.7-.3 2.5.6 3.7 2.5 3.1 4.5l-2 7-3.5-1c.7-2.8 1.1-4.1 1.8-6.9.1-.6-.1-1-.8-1.2-.6-.2-1.3 0-1.8.6-.6 2.8-1 4.1-1.6 6.9-1.4-.3-2.1-.5-3.6-.8.8-4 1.2-6.1 2-10.3zM103.6 97.4c-1.4-.6-2-.8-3.4-1.3.1-.2.1-.4.2-.6-.8.3-1.5.4-2.4 0-2.7-.9-3.9-3.3-2.9-6.6 1.1-3.5 4.1-4.8 7.7-3.5.4.1.8.3 1.1.6.6-1.6.9-2.5 1.5-4.1 1.6.6 2.3.9 3.9 1.5-2.3 5.6-3.4 8.4-5.7 14zm-4.1-4.2c.6.2 1.2.2 1.8-.1.7-1.8 1-2.7 1.7-4.5-.4-.2-.8-.4-1.2-.5-1.2-.4-2.4.2-3.1 2-.5 1.6-.2 2.7.8 3.1z"/>
  </g>
  <g fill="#0D4308">
    <path d="M45.8 109.1h-3.7v-.7c-.6.6-1.3.9-2.3.9-2.9 0-4.8-2-4.8-5.6 0-3.8 2.3-6 5.9-6 .4 0 .8 0 1.1.2v-4.6h3.7l.1 15.8zm-5.3-2.6c.6 0 1.2-.3 1.6-.8v-5.1c-.4-.1-.8-.1-1.2-.1-1.2 0-2.1 1.1-2.1 3.1 0 1.8.7 2.9 1.7 2.9zM53.7 102h.3v-.5c0-.6-.4-.9-1-.9-1.2 0-2.5.3-3.7 1l-.7-2.7c1.6-.8 3.1-1.2 4.6-1.2 2.8 0 4.4 1.5 4.4 3.7v4.4c0 1.2.2 2.3.6 3.3h-3.5c-.2-.2-.3-.6-.4-.9-.8.8-1.7 1.2-2.7 1.2-2.4 0-3.9-1.3-3.9-3.4 0-2.6 2.1-4 6-4zm.2 3.7v-1.3h-.2c-1.6 0-2.5.6-2.5 1.5 0 .5.3.7.8.7.9-.1 1.5-.4 1.9-.9zM63.6 96.5c-.8.8-2.2.8-3 0s-.8-2 0-2.8 2.2-.8 3 0 .8 2 0 2.8zm.4 12.6h-3.7V97.9H64v11.2zM73.4 100.7c-.3-.1-.8-.2-1.3-.2-.8 0-1.4.3-1.8 1.1v7.4h-3.7V97.9h3.7v.8c.5-.6 1.4-1 2.1-1 .4 0 .8.1 1.3.2l-.3 2.8zM80.5 104.2l2-6.3h3.9L82 109.5c-.7 1.7-1.9 3.1-3.6 4.1l-2.2-2.4c1.2-.7 2.1-1.6 2.5-2.7l.1-.2-4-10.5h3.9l1.8 6.4z"/>
  </g>
</svg>
